<svg height='100px' width='100px'  fill="#FFFFFF" xmlns="http://www.w3.org/2000/svg" viewBox="0 0 64 64" x="0px" y="0px"><title>peace-dove-Hippie-pacifism-cultures</title><g><path d="M55.989,39.7v-.031A20.823,20.823,0,0,0,62,25V24H55.39A21.017,21.017,0,0,0,56,19V18H46A20.911,20.911,0,0,0,26.507,31.2,8.9,8.9,0,0,1,24,25V23a7,7,0,0,0-14,0v.382l-6,3V20H6a5.006,5.006,0,0,0,5-5V14H7a4.936,4.936,0,0,0-2.373.627A4.984,4.984,0,0,1,9,12h6a5.006,5.006,0,0,0,5-5V6H15a5.008,5.008,0,0,0-4.9,4H9a6.989,6.989,0,0,0-1,.08V7A5.006,5.006,0,0,0,3,2H2V7a4.988,4.988,0,0,0,2.758,4.445A6.986,6.986,0,0,0,2,17V33H4V29.618l6,3V39A22.977,22.977,0,0,0,48.46,56H50A11.012,11.012,0,0,0,61,45V44H55.442a23.053,23.053,0,0,0,.532-4.283ZM15,8h2.829A3.006,3.006,0,0,1,15,10H12.171A3.006,3.006,0,0,1,15,8ZM4,4.171A3.005,3.005,0,0,1,6,7V9.829A3.005,3.005,0,0,1,4,7ZM7,16H8.829A3.006,3.006,0,0,1,6,18H4.171A3.006,3.006,0,0,1,7,16ZM54.293,38.563A18.888,18.888,0,0,1,41,44H33.038c0-.083,0-.167.009-.25.011-.167.027-.333.042-.5q.039-.427.1-.851c.023-.167.046-.334.074-.5.048-.294.107-.586.169-.878.031-.146.059-.293.093-.438.1-.431.217-.86.35-1.284h0a18.959,18.959,0,0,1,1.686-3.791l0-.008A19.067,19.067,0,0,1,52,26h7.975A18.847,18.847,0,0,1,54.293,38.563ZM46,20h7.974a18.968,18.968,0,0,1-.641,4H52q-.69,0-1.374.046c-.154.01-.305.031-.458.045-.3.027-.6.051-.9.091-.184.024-.365.061-.547.09-.264.042-.53.081-.792.133-.194.039-.384.089-.577.133-.247.057-.5.11-.74.175-.2.053-.389.116-.583.174-.236.071-.474.138-.707.217-.2.066-.388.143-.582.215-.226.084-.454.165-.677.257-.2.08-.386.17-.578.256-.216.1-.434.191-.646.294-.191.093-.378.2-.566.294-.208.109-.417.217-.621.333-.186.106-.366.219-.549.33-.2.122-.4.242-.6.371-.179.118-.354.242-.529.366-.191.134-.383.267-.57.407-.172.129-.339.265-.507.4s-.366.292-.544.444-.322.286-.482.431-.346.315-.515.479-.3.307-.455.462-.328.34-.486.516c-.144.159-.283.323-.422.488-.155.182-.308.365-.457.553-.133.169-.262.341-.391.514-.144.193-.286.388-.423.587-.122.177-.24.358-.358.54-.078.121-.162.236-.238.359H33a9.035,9.035,0,0,1-1.186-.085c-.055-.007-.11-.012-.165-.02a8.854,8.854,0,0,1-1.09-.239l-.2-.059a8.832,8.832,0,0,1-1.038-.392c-.055-.025-.109-.053-.164-.079a9,9,0,0,1-1.021-.565l-.01-.007A18.924,18.924,0,0,1,46,20ZM5.236,28,10,25.618v4.764ZM31.964,38.7A21,21,0,0,0,31,45v1H41c.644,0,1.282-.035,1.916-.093.206-.019.408-.051.613-.076.428-.051.853-.109,1.275-.186.235-.043.468-.1.7-.146.388-.085.774-.179,1.156-.286.235-.066.469-.134.7-.208.381-.121.757-.256,1.13-.4.217-.083.435-.162.649-.253.414-.175.82-.369,1.222-.57.16-.08.323-.15.481-.234q.83-.442,1.622-.958c.1-.069.2-.148.307-.219.358-.244.716-.488,1.06-.754a21.09,21.09,0,0,1-.629,3.108v0A21,21,0,0,1,12,39V23a5,5,0,0,1,10,0v2a10.893,10.893,0,0,0,3.787,8.268l-.013.041.559.427A10.892,10.892,0,0,0,33,36h.037c-.035.073-.062.147-.1.22q-.2.433-.382.869c-.053.127-.107.254-.157.381-.159.409-.308.819-.438,1.23M50.437,53.99c.054-.063.1-.133.152-.2.437-.519.858-1.051,1.247-1.605.025-.036.047-.075.073-.111.365-.527.7-1.072,1.021-1.626.088-.152.174-.3.258-.458.324-.595.632-1.2.9-1.82.012-.027.021-.056.033-.083.258-.6.484-1.214.69-1.836.029-.086.068-.167.1-.254h4.036A9.014,9.014,0,0,1,50.437,53.99Z"></path><circle cx="16" cy="24" r="2"></circle></g></svg>